<svg xmlns="http://www.w3.org/2000/svg" viewBox="0 0 24 24" width="32" height="32" fill="currentColor" aria-hidden="true">
    <path d="M12 2a1 1 0 0 0-1 1v1h-1a1 1 0 0 0 0 2h1v1a1 1 0 1 0 2 0V6h1a1 1 0 0 0 0-2h-1V3a1 1 0 0 0-1-1zM7 11a7 7 0 1 1 14 0a7 7 0 0 1-14 0zm13.95 0a6.962 6.962 0 0 0-1.464-4.194l2.778-2.778a1 1 0 0 0-1.415-1.414L18.95 5.393A6.962 6.962 0 0 0 14.756 4H14a1 1 0 1 0 0 2h.756A6.963 6.963 0 0 0 17 11a6.963 6.963 0 0 0-2.244 5.244h-.756a1 1 0 1 0 0 2h.756a6.963 6.963 0 0 0 4.194 1.463a1 1 0 1 0 0-2a6.963 6.963 0 0 0-4.194-1.464h-.756a1 1 0 1 0 0 2h.756A6.963 6.963 0 0 0 20 11z"/>
  </svg>
  